<?xml version="1.0" encoding="utf-8"?>
<!-- Generator: Adobe Illustrator 15.0.2, SVG Export Plug-In . SVG Version: 6.00 Build 0)  -->
<!DOCTYPE svg PUBLIC "-//W3C//DTD SVG 1.1//EN" "http://www.w3.org/Graphics/SVG/1.1/DTD/svg11.dtd">
<svg version="1.1" id="Layer_1" xmlns="http://www.w3.org/2000/svg" xmlns:xlink="http://www.w3.org/1999/xlink" x="0px" y="0px"
	 width="1024px" height="780px" viewBox="-12 110 1024 780" enable-background="new -12 110 1024 780" xml:space="preserve">
<g>
	<path fill="#8CC63F" d="M53.593,408.639h26.249v67.799c0,11.247,7.35,17.247,18.599,17.247s18.599-6,18.599-17.247v-67.799h26.249
		v67.799c0,24.147-17.699,41.247-44.698,41.247c-27.299,0-44.998-17.1-44.998-41.247V408.639z"/>
	<path fill="#8CC63F" d="M160.061,408.639h26.249v84.747h43.798v22.498h-70.047V408.639z"/>
	<path fill="#8CC63F" d="M248.873,431.139h-32.548v-22.5h91.346v22.5h-32.549v84.745h-26.249V431.139z"/>
	<path fill="#8CC63F" d="M318.323,408.639h37.348c10.95,0,16.2,0.75,20.85,2.552c12.149,4.647,19.799,15.598,19.799,31.196
		c0,11.4-5.399,23.851-16.049,29.25v0.299c0,0,1.5,1.951,4.05,6.45l20.849,37.498h-29.25l-19.049-36.147h-12.299v36.147h-26.249
		V408.639z M355.971,457.236c8.399,0,13.649-4.65,13.649-13.199c0-8.101-3-12.898-16.199-12.898h-8.85v26.099L355.971,457.236
		L355.971,457.236z"/>
	<path fill="#8CC63F" d="M479.57,493.386h-33.449l-6.45,22.498h-26.999l36.449-107.245h27.599l36.449,107.245h-27L479.57,493.386z
		 M462.771,433.088c0,0-2.4,11.699-4.351,18.449l-6.149,20.85h21.149l-6-20.85c-1.95-6.75-4.35-18.449-4.35-18.449H462.771z"/>
	<path fill="#FFFFFF" d="M523.28,408.639h44.548c20.85,0,34.948,15.3,34.948,36.898s-14.1,37.198-34.948,37.198h-18.299v33.147
		H523.28V408.639z M562.429,460.236c9.149,0,13.649-6.15,13.649-14.699s-4.5-14.398-13.2-14.398h-13.349v29.099L562.429,460.236
		L562.429,460.236z"/>
	<path fill="#FFFFFF" d="M669.137,406.838c32.398,0,56.099,24,56.099,54.748c0,31.499-23.699,56.099-56.099,56.099
		c-32.398,0-56.099-24.6-56.099-56.099C613.038,430.838,636.737,406.838,669.137,406.838z M669.137,493.685
		c16.049,0,28.949-13.799,28.949-32.099c0-17.549-12.9-30.748-28.949-30.748s-28.948,13.199-28.948,30.748
		C640.188,479.886,653.088,493.685,669.137,493.685z"/>
	<path fill="#FFFFFF" d="M738.707,408.639h26.549l29.699,50.099c4.199,7.051,9,18.3,9,18.3h0.299c0,0-1.199-11.55-1.199-18.3
		v-50.099h26.25v107.245h-26.399l-29.849-49.948c-4.201-7.049-9-18.299-9-18.299h-0.301c0,0,1.201,11.552,1.201,18.299v49.948
		h-26.25V408.639L738.707,408.639z"/>
	<path fill="#FFFFFF" d="M899.758,406.838c27.449,0,41.248,14.25,41.248,14.25l-12.6,19.65c0,0-10.949-9.9-26.099-9.9
		c-22.5,0-31.647,14.398-31.647,30.299c0,20.399,14.1,32.548,30.748,32.548c12.6,0,21.75-7.799,21.75-7.799v-8.25h-15.15v-22.349
		h38.398v60.597h-21.898v-3c0-2.25,0.15-4.5,0.15-4.5h-0.301c0,0-10.351,9.302-28.199,9.302c-27.449,0-52.648-20.55-52.648-55.647
		C843.51,430.838,867.061,406.838,899.758,406.838z"/>
</g>
<g>
	<path fill="#FFFFFF" d="M299.201,583.152h3.739v1.807c0,0.84-0.084,1.554-0.084,1.554h0.084c0,0,1.807-3.863,7.141-3.863
		c5.713,0,9.326,4.536,9.326,11.132c0,6.764-4.075,11.132-9.62,11.132c-4.663,0-6.511-3.486-6.511-3.486h-0.084
		c0,0,0.084,0.756,0.084,1.85v9.534h-4.075V583.152z M309.157,601.426c3.36,0,6.133-2.771,6.133-7.604
		c0-4.621-2.478-7.604-6.007-7.604c-3.193,0-6.133,2.228-6.133,7.646C303.15,597.645,305.25,601.426,309.157,601.426z"/>
	<path fill="#FFFFFF" d="M323.973,583.152h3.949v3.695c0,0.883-0.084,1.598-0.084,1.598h0.084c0.966-3.108,3.445-5.545,6.721-5.545
		c0.546,0,1.05,0.084,1.05,0.084v4.032c0,0-0.546-0.127-1.176-0.127c-2.604,0-4.999,1.85-5.965,4.999
		c-0.378,1.22-0.504,2.521-0.504,3.823v8.695h-4.075V583.152z"/>
	<path fill="#FFFFFF" d="M348.032,582.648c6.007,0,9.2,4.452,9.2,9.955c0,0.547-0.126,1.765-0.126,1.765h-15.501
		c0.21,4.663,3.529,7.016,7.31,7.016c3.655,0,6.301-2.479,6.301-2.479l1.68,2.981c0,0-3.151,3.024-8.233,3.024
		c-6.679,0-11.258-4.831-11.258-11.132C337.404,587.018,341.983,582.648,348.032,582.648z M353.073,591.302
		c-0.126-3.653-2.395-5.419-5.125-5.419c-3.108,0-5.629,1.934-6.217,5.419H353.073z"/>
	<path fill="#FFFFFF" d="M361.94,598.905c0,0,2.394,2.479,6.091,2.479c1.764,0,3.529-0.924,3.529-2.646
		c0-3.907-10.922-3.108-10.922-10.04c0-3.864,3.444-6.049,7.687-6.049c4.663,0,6.847,2.353,6.847,2.353l-1.638,3.066
		c0,0-1.89-1.892-5.251-1.892c-1.764,0-3.486,0.756-3.486,2.604c0,3.823,10.922,2.981,10.922,9.956c0,3.527-3.024,6.175-7.688,6.175
		c-5.209,0-8.065-3.108-8.065-3.108L361.94,598.905z"/>
	<path fill="#FFFFFF" d="M380.194,598.905c0,0,2.394,2.479,6.091,2.479c1.764,0,3.529-0.924,3.529-2.646
		c0-3.907-10.922-3.108-10.922-10.04c0-3.864,3.444-6.049,7.687-6.049c4.663,0,6.847,2.353,6.847,2.353l-1.638,3.066
		c0,0-1.89-1.892-5.251-1.892c-1.764,0-3.486,0.756-3.486,2.604c0,3.823,10.922,2.981,10.922,9.956c0,3.527-3.024,6.175-7.688,6.175
		c-5.209,0-8.065-3.108-8.065-3.108L380.194,598.905z"/>
	<path fill="#FFFFFF" d="M409.551,574.751h4.075v9.704c0,1.05-0.084,1.806-0.084,1.806h0.084c0,0,1.807-3.611,6.805-3.611
		c5.714,0,9.326,4.536,9.326,11.132c0,6.764-4.075,11.132-9.662,11.132c-4.747,0-6.679-3.654-6.679-3.654h-0.084
		c0,0,0.084,0.672,0.084,1.597v1.555h-3.865V574.751z M419.507,601.426c3.36,0,6.133-2.771,6.133-7.604
		c0-4.621-2.478-7.604-6.007-7.604c-3.192,0-6.133,2.228-6.133,7.646C413.5,597.645,415.474,601.426,419.507,601.426z"/>
	<path fill="#FFFFFF" d="M434.116,583.152h4.075v12.687c0,2.94,0.588,5.293,3.99,5.293c4.327,0,6.89-3.823,6.89-8.022v-9.956h4.075
		v21.256h-3.949v-2.814c0-0.882,0.084-1.555,0.084-1.555h-0.084c-0.882,2.101-3.654,4.873-7.813,4.873
		c-4.789,0-7.268-2.521-7.268-8.149V583.152L434.116,583.152z"/>
	<path fill="#FFFFFF" d="M459.673,586.723H456.9v-3.275h2.897v-6.133h3.949v6.133h5.125v3.275h-5.125v9.452
		c0,4.243,2.981,4.789,4.537,4.789c0.588,0,0.966-0.084,0.966-0.084v3.612c0,0-0.588,0.084-1.428,0.084
		c-2.73,0-8.149-0.84-8.149-7.939V586.723z"/>
	<path fill="#FFFFFF" d="M474.395,586.723h-2.772v-3.275h2.897v-6.133h3.949v6.133h5.125v3.275h-5.125v9.452
		c0,4.243,2.982,4.789,4.537,4.789c0.588,0,0.966-0.084,0.966-0.084v3.612c0,0-0.588,0.084-1.428,0.084
		c-2.729,0-8.149-0.84-8.149-7.939V586.723L474.395,586.723z"/>
	<path fill="#FFFFFF" d="M497.088,582.648c6.343,0,11.468,4.662,11.468,11.09c0,6.469-5.125,11.174-11.468,11.174
		s-11.468-4.705-11.468-11.174C485.62,587.312,490.745,582.648,497.088,582.648z M497.088,601.384c4.033,0,7.309-3.191,7.309-7.646
		c0-4.411-3.275-7.562-7.309-7.562c-3.991,0-7.31,3.15-7.31,7.562C489.778,598.191,493.097,601.384,497.088,601.384z"/>
	<path fill="#FFFFFF" d="M512.843,583.152h3.949v2.813c0,0.84-0.084,1.556-0.084,1.556h0.084c0.84-1.85,3.36-4.873,7.981-4.873
		c4.998,0,7.309,2.729,7.309,8.148v13.61h-4.074V591.72c0-2.981-0.63-5.335-4.033-5.335c-3.233,0-5.839,2.144-6.721,5.209
		c-0.252,0.841-0.336,1.808-0.336,2.856v9.956h-4.075V583.152z"/>
	<path fill="#FFFFFF" d="M549.846,586.723h-2.772v-3.275h2.898v-6.133h3.948v6.133h5.125v3.275h-5.125v9.452
		c0,4.243,2.982,4.789,4.537,4.789c0.588,0,0.966-0.084,0.966-0.084v3.612c0,0-0.588,0.084-1.428,0.084
		c-2.73,0-8.149-0.84-8.149-7.939V586.723z"/>
	<path fill="#FFFFFF" d="M572.54,582.648c6.343,0,11.468,4.662,11.468,11.09c0,6.469-5.125,11.174-11.468,11.174
		s-11.468-4.705-11.468-11.174C561.072,587.312,566.197,582.648,572.54,582.648z M572.54,601.384c4.033,0,7.31-3.191,7.31-7.646
		c0-4.411-3.276-7.562-7.31-7.562c-3.991,0-7.31,3.15-7.31,7.562C565.23,598.191,568.548,601.384,572.54,601.384z"/>
	<path fill="#FFFFFF" d="M599.627,574.751h4.076v9.704c0,1.05-0.084,1.806-0.084,1.806h0.084c0,0,1.805-3.611,6.805-3.611
		c5.713,0,9.326,4.536,9.326,11.132c0,6.764-4.076,11.132-9.662,11.132c-4.748,0-6.68-3.654-6.68-3.654h-0.084
		c0,0,0.084,0.672,0.084,1.597v1.555h-3.865V574.751z M609.584,601.426c3.359,0,6.133-2.771,6.133-7.604
		c0-4.621-2.479-7.604-6.008-7.604c-3.191,0-6.133,2.228-6.133,7.646C603.576,597.645,605.551,601.426,609.584,601.426z"/>
	<path fill="#FFFFFF" d="M633.758,582.648c6.008,0,9.199,4.452,9.199,9.955c0,0.547-0.125,1.765-0.125,1.765H627.33
		c0.211,4.663,3.529,7.016,7.311,7.016c3.654,0,6.302-2.479,6.302-2.479l1.68,2.981c0,0-3.15,3.024-8.232,3.024
		c-6.68,0-11.258-4.831-11.258-11.132C623.131,587.018,627.709,582.648,633.758,582.648z M638.799,591.302
		c-0.127-3.653-2.395-5.419-5.125-5.419c-3.108,0-5.629,1.934-6.217,5.419H638.799z"/>
	<path fill="#FFFFFF" d="M655.291,609.701c3.695,0,6.721-1.639,6.721-5.965v-1.556c0-0.672,0.043-1.344,0.043-1.344h-0.084
		c-1.262,2.1-3.235,3.318-6.303,3.318c-5.922,0-9.492-4.747-9.492-10.88c0-6.092,3.402-10.629,9.283-10.629
		c5.125,0,6.68,3.15,6.68,3.15h0.084c0,0-0.043-0.294-0.043-0.672v-1.975h3.906v20.374c0,7.015-5.334,9.702-10.711,9.702
		c-2.562,0-5.209-0.714-7.268-1.764l1.344-3.192C649.451,608.271,652.098,609.701,655.291,609.701z M662.096,593.318
		c0-5.545-2.688-7.143-6.008-7.143c-3.695,0-5.797,2.688-5.797,7.017c0,4.409,2.354,7.436,6.176,7.436
		C659.408,600.628,662.096,598.863,662.096,593.318z"/>
	<path fill="#FFFFFF" d="M671.766,574.751h4.117v4.159h-4.117V574.751z M671.807,583.152h4.076v21.256h-4.076V583.152z"/>
	<path fill="#FFFFFF" d="M681.559,583.152h3.949v2.813c0,0.84-0.084,1.556-0.084,1.556h0.084c0.84-1.85,3.361-4.873,7.982-4.873
		c4.998,0,7.309,2.729,7.309,8.148v13.61h-4.074V591.72c0-2.981-0.631-5.335-4.032-5.335c-3.234,0-5.841,2.144-6.722,5.209
		c-0.252,0.841-0.336,1.808-0.336,2.856v9.956h-4.076V583.152z"/>
</g>
</svg>
